<svg width="227" height="71" viewBox="0 0 227 71" fill="none" xmlns="http://www.w3.org/2000/svg">
<path d="M16.9744 0.704086H0.78244L0.398438 2.27209H0.46244C2.86244 1.60009 5.00644 1.28009 6.89444 1.28009H7.79044V24.0001H9.99844V1.28009H10.8624C12.7504 1.28009 14.9264 1.60009 17.3264 2.27209H17.3904L16.9744 0.704086Z" fill="black"/>
<path d="M36.538 0.704086V11.5841H24.026V0.704086H21.85V24.0001H24.026V12.1601H36.538V24.0001H38.746V0.704086H36.538Z" fill="black"/>
<path d="M59.044 22.4641C56.164 23.1041 52.996 23.4241 49.54 23.4241H47.46V12.1601H49.316C52.42 12.1601 54.692 12.2881 56.132 12.5761H56.196V11.2321H56.132C54.916 11.4561 52.644 11.5841 49.316 11.5841H47.46V1.28009H49.508C52.388 1.28009 55.364 1.56809 58.436 2.17609H58.5L58.116 0.704086H45.284V24.0001H58.564L59.108 22.4641H59.044Z" fill="black"/>
<path d="M92.1453 12.0641C92.1453 4.83209 87.5053 0.704086 80.2733 0.704086H72.4333V24.0001H79.9533C87.3453 24.0001 92.1453 19.5521 92.1453 12.0641ZM89.7133 12.2561C89.7133 19.3921 86.1933 23.4881 80.2733 23.4881C77.4253 23.4881 75.5373 23.3921 74.6093 23.2001V1.21609H79.9533C85.7773 1.21609 89.7133 5.66409 89.7133 12.2561Z" fill="black"/>
<path d="M97.6486 24.0001H99.8246V0.704086H97.6486V24.0001Z" fill="black"/>
<path d="M120.635 24.0001H123.003L113.659 0.288086H113.531L108.187 13.8241L107.579 15.3601C105.883 19.5841 104.699 22.4641 104.027 24.0001H105.723C105.883 22.9441 106.139 21.8241 106.459 20.6721C106.779 19.4881 107.259 18.0481 107.931 16.2881H117.627L120.635 24.0001ZM108.155 15.7121L108.795 14.0481L112.763 3.90409L117.403 15.7121H108.155Z" fill="black"/>
<path d="M150.209 24.0001L148.033 0.704086H146.049L138.625 19.1041L130.465 0.704086H128.097V0.800087L128.577 1.85609L127.489 13.7281C127.073 18.2721 126.625 21.6961 126.209 24.0001H127.713C127.681 23.5841 127.681 22.9761 127.681 22.1121C127.681 19.7761 127.841 16.9921 128.129 13.7601L129.089 3.07209L137.793 22.5281H137.921L145.985 2.49609L148.001 24.0001H150.209Z" fill="black"/>
<path d="M154.674 12.5441C154.546 19.6481 159.922 24.4801 166.418 24.3841C173.074 24.4801 178.642 19.3921 178.546 12.1601C178.642 5.05609 173.266 0.224087 166.802 0.320087C160.146 0.224087 154.578 5.31209 154.674 12.5441ZM176.114 12.4801C176.21 19.1681 172.018 23.9681 166.738 23.8721C161.33 23.9681 157.042 19.0721 157.106 12.2241C157.042 5.53609 161.138 0.736086 166.546 0.832087C171.922 0.832087 176.114 5.60009 176.114 12.4801Z" fill="black"/>
<path d="M198.412 0.704086C198.7 2.91209 198.828 6.30408 198.828 10.8801V20.0961L185.484 0.704086H182.892V0.800087L184.108 2.56009V13.8241C184.108 18.1441 183.98 21.5361 183.692 24.0001H185.164C184.876 21.7921 184.748 18.4001 184.748 13.8241V3.48809L199.244 24.3841H199.468V10.8801C199.468 6.56009 199.596 3.16809 199.884 0.704086H198.412Z" fill="black"/>
<path d="M225.812 12.0641C225.812 4.83209 221.172 0.704086 213.94 0.704086H206.1V24.0001H213.62C221.012 24.0001 225.812 19.5521 225.812 12.0641ZM223.38 12.2561C223.38 19.3921 219.86 23.4881 213.94 23.4881C211.092 23.4881 209.204 23.3921 208.276 23.2001V1.21609H213.62C219.444 1.21609 223.38 5.66409 223.38 12.2561Z" fill="black"/>
<path d="M2.375 48.0002V39.2729H3.43182V47.0627H7.48864V48.0002H2.375Z" fill="black" fill-opacity="0.63"/>
<path d="M17.2523 39.2729H18.3091V45.0514C18.3091 45.6479 18.1685 46.1806 17.8872 46.6494C17.6088 47.1153 17.2153 47.4832 16.7068 47.7531C16.1983 48.0201 15.6017 48.1536 14.917 48.1536C14.2324 48.1536 13.6358 48.0201 13.1273 47.7531C12.6188 47.4832 12.2239 47.1153 11.9426 46.6494C11.6642 46.1806 11.525 45.6479 11.525 45.0514V39.2729H12.5818V44.9661C12.5818 45.3923 12.6756 45.7715 12.8631 46.1039C13.0506 46.4335 13.3176 46.6934 13.6642 46.8837C14.0136 47.0712 14.4313 47.165 14.917 47.165C15.4028 47.165 15.8205 47.0712 16.1699 46.8837C16.5193 46.6934 16.7864 46.4335 16.971 46.1039C17.1585 45.7715 17.2523 45.3923 17.2523 44.9661V39.2729Z" fill="black" fill-opacity="0.63"/>
<path d="M23.3309 39.2729L25.5809 42.9036H25.6491L27.8991 39.2729H29.1434L26.3991 43.6366L29.1434 48.0002H27.8991L25.6491 44.4377H25.5809L23.3309 48.0002H22.0866L24.8991 43.6366L22.0866 39.2729H23.3309Z" fill="black" fill-opacity="0.63"/>
<path d="M38.646 39.2729H39.7028V45.0514C39.7028 45.6479 39.5622 46.1806 39.281 46.6494C39.0026 47.1153 38.6091 47.4832 38.1006 47.7531C37.5921 48.0201 36.9955 48.1536 36.3108 48.1536C35.6261 48.1536 35.0295 48.0201 34.521 47.7531C34.0125 47.4832 33.6176 47.1153 33.3364 46.6494C33.058 46.1806 32.9188 45.6479 32.9188 45.0514V39.2729H33.9756V44.9661C33.9756 45.3923 34.0693 45.7715 34.2568 46.1039C34.4443 46.4335 34.7114 46.6934 35.058 46.8837C35.4074 47.0712 35.825 47.165 36.3108 47.165C36.7966 47.165 37.2142 47.0712 37.5636 46.8837C37.9131 46.6934 38.1801 46.4335 38.3648 46.1039C38.5523 45.7715 38.646 45.3923 38.646 44.9661V39.2729Z" fill="black" fill-opacity="0.63"/>
<path d="M44.2133 48.0002V39.2729H47.1621C47.844 39.2729 48.4036 39.3894 48.8411 39.6224C49.2786 39.8525 49.6025 40.1693 49.8127 40.5727C50.0229 40.9761 50.128 41.4349 50.128 41.9491C50.128 42.4633 50.0229 42.9193 49.8127 43.317C49.6025 43.7147 49.28 44.0272 48.8454 44.2545C48.4107 44.4789 47.8553 44.5911 47.1792 44.5911H44.7928V43.6366H47.1451C47.611 43.6366 47.986 43.5684 48.2701 43.432C48.557 43.2957 48.7644 43.1025 48.8923 42.8525C49.0229 42.5997 49.0883 42.2985 49.0883 41.9491C49.0883 41.5997 49.0229 41.2943 48.8923 41.0329C48.7616 40.7715 48.5528 40.5698 48.2658 40.4278C47.9789 40.2829 47.5996 40.2105 47.128 40.2105H45.2701V48.0002H44.2133ZM48.3212 44.0798L50.469 48.0002H49.2417L47.128 44.0798H48.3212Z" fill="black" fill-opacity="0.63"/>
<path d="M53.2461 39.2729H54.4563L56.8768 43.3468H56.979L59.3995 39.2729H60.6097L57.4563 44.4036V48.0002H56.3995V44.4036L53.2461 39.2729Z" fill="black" fill-opacity="0.63"/>
<path d="M70.1516 48.0002V39.2729H73.1004C73.7823 39.2729 74.3419 39.3894 74.7794 39.6224C75.2169 39.8525 75.5408 40.1693 75.751 40.5727C75.9612 40.9761 76.0663 41.4349 76.0663 41.9491C76.0663 42.4633 75.9612 42.9193 75.751 43.317C75.5408 43.7147 75.2183 44.0272 74.7837 44.2545C74.349 44.4789 73.7936 44.5911 73.1175 44.5911H70.7311V43.6366H73.0834C73.5493 43.6366 73.9243 43.5684 74.2084 43.432C74.4953 43.2957 74.7027 43.1025 74.8305 42.8525C74.9612 42.5997 75.0266 42.2985 75.0266 41.9491C75.0266 41.5997 74.9612 41.2943 74.8305 41.0329C74.6999 40.7715 74.491 40.5698 74.2041 40.4278C73.9172 40.2829 73.5379 40.2105 73.0663 40.2105H71.2084V48.0002H70.1516ZM74.2595 44.0798L76.4072 48.0002H75.18L73.0663 44.0798H74.2595Z" fill="black" fill-opacity="0.63"/>
<path d="M80.2273 48.0002V39.2729H85.4944V40.2105H81.2842V43.1593H85.2217V44.0968H81.2842V47.0627H85.5626V48.0002H80.2273Z" fill="black" fill-opacity="0.63"/>
<path d="M89.7992 48.0002V39.2729H90.856V43.1593H95.5094V39.2729H96.5663V48.0002H95.5094V44.0968H90.856V48.0002H89.7992Z" fill="black" fill-opacity="0.63"/>
<path d="M101.44 48.0002H100.332L103.537 39.2729H104.627L107.832 48.0002H106.724L104.116 40.6536H104.048L101.44 48.0002ZM101.849 44.5911H106.315V45.5286H101.849V44.5911Z" fill="black" fill-opacity="0.63"/>
<path d="M111.591 48.0002V39.2729H114.643C115.251 39.2729 115.752 39.3781 116.147 39.5883C116.542 39.7957 116.836 40.0755 117.029 40.4278C117.222 40.7772 117.319 41.165 117.319 41.5911C117.319 41.9661 117.252 42.2758 117.118 42.5201C116.988 42.7644 116.814 42.9576 116.599 43.0997C116.385 43.2417 116.154 43.3468 115.904 43.415V43.5002C116.171 43.5173 116.439 43.611 116.709 43.7815C116.979 43.9519 117.205 44.1962 117.387 44.5144C117.569 44.8326 117.66 45.2218 117.66 45.682C117.66 46.1195 117.56 46.513 117.361 46.8624C117.162 47.2119 116.849 47.4889 116.42 47.6934C115.991 47.8979 115.432 48.0002 114.745 48.0002H111.591ZM112.648 47.0627H114.745C115.435 47.0627 115.925 46.9292 116.215 46.6622C116.508 46.3923 116.654 46.0656 116.654 45.682C116.654 45.3866 116.579 45.1139 116.428 44.8639C116.277 44.611 116.063 44.4093 115.785 44.2587C115.506 44.1053 115.177 44.0286 114.796 44.0286H112.648V47.0627ZM112.648 43.1082H114.608C114.927 43.1082 115.214 43.0457 115.469 42.9207C115.728 42.7957 115.932 42.6195 116.083 42.3923C116.236 42.165 116.313 41.8979 116.313 41.5911C116.313 41.2076 116.179 40.8823 115.912 40.6153C115.645 40.3454 115.222 40.2105 114.643 40.2105H112.648V43.1082Z" fill="black" fill-opacity="0.63"/>
<path d="M128.628 39.2729V48.0002H127.571V39.2729H128.628Z" fill="black" fill-opacity="0.63"/>
<path d="M140.067 39.2729V48.0002H139.045L134.289 41.148H134.204V48.0002H133.147V39.2729H134.17L138.942 46.1423H139.028V39.2729H140.067Z" fill="black" fill-opacity="0.63"/>
<path d="M149.88 40.2105V39.2729H156.425V40.2105H153.681V48.0002H152.624V40.2105H149.88Z" fill="black" fill-opacity="0.63"/>
<path d="M160.456 48.0002V39.2729H161.513V43.1593H166.166V39.2729H167.223V48.0002H166.166V44.0968H161.513V48.0002H160.456Z" fill="black" fill-opacity="0.63"/>
<path d="M172.097 48.0002H170.989L174.194 39.2729H175.285L178.489 48.0002H177.381L174.773 40.6536H174.705L172.097 48.0002ZM172.506 44.5911H176.972V45.5286H172.506V44.5911Z" fill="black" fill-opacity="0.63"/>
<path d="M183.305 39.2729V48.0002H182.248V39.2729H183.305Z" fill="black" fill-opacity="0.63"/>
<path d="M187.824 48.0002V39.2729H188.881V47.0627H192.938V48.0002H187.824Z" fill="black" fill-opacity="0.63"/>
<path d="M197.883 48.0002H196.775L199.98 39.2729H201.07L204.275 48.0002H203.167L200.559 40.6536H200.491L197.883 48.0002ZM198.292 44.5911H202.758V45.5286H198.292V44.5911Z" fill="black" fill-opacity="0.63"/>
<path d="M214.955 39.2729V48.0002H213.932L209.176 41.148H209.091V48.0002H208.034V39.2729H209.057L213.83 46.1423H213.915V39.2729H214.955Z" fill="black" fill-opacity="0.63"/>
<path d="M222.163 48.0002H219.47V39.2729H222.282C223.129 39.2729 223.853 39.4477 224.455 39.7971C225.058 40.1437 225.519 40.6423 225.84 41.2928C226.161 41.9406 226.322 42.7161 226.322 43.6195C226.322 44.5286 226.16 45.3113 225.836 45.9676C225.512 46.621 225.041 47.1238 224.421 47.4761C223.802 47.8255 223.049 48.0002 222.163 48.0002ZM220.526 47.0627H222.095C222.816 47.0627 223.414 46.9235 223.889 46.6451C224.363 46.3667 224.717 45.9704 224.95 45.4562C225.183 44.942 225.299 44.3298 225.299 43.6195C225.299 42.915 225.184 42.3085 224.954 41.7999C224.724 41.2886 224.38 40.8965 223.923 40.6238C223.465 40.3482 222.896 40.2105 222.214 40.2105H220.526V47.0627Z" fill="black" fill-opacity="0.63"/>
<path d="M160.944 61.0007C160.891 61.0096 160.844 61.0334 160.811 61.0678L157.892 64.1035C157.825 64.1711 157.828 64.2674 157.899 64.3323L165.533 70.9396C165.575 70.9781 165.637 71 165.701 71C165.765 71 165.827 70.9781 165.869 70.9396L173.502 64.3323C173.574 64.2674 173.577 64.1711 173.509 64.1035L170.591 61.0678C170.548 61.0254 170.484 61.0007 170.415 61.0007H160.986C160.972 60.9998 160.958 60.9998 160.944 61.0007Z" fill="#A19072"/>
<path d="M160.944 61.0007C160.891 61.0096 160.844 61.0334 160.811 61.0678L157.892 64.1035C157.825 64.1711 157.828 64.2674 157.899 64.3323L165.533 70.9396C165.575 70.9781 165.637 71 165.701 71C165.765 71 165.827 70.9781 165.869 70.9396L173.502 64.3323C173.574 64.2674 173.577 64.1711 173.509 64.1035L170.591 61.0678C170.548 61.0254 170.484 61.0007 170.415 61.0007H160.986C160.972 60.9998 160.958 60.9998 160.944 61.0007Z" fill="url(#paint0_radial_658_344)" fill-opacity="0.39"/>
<path d="M135.233 61.0007C135.18 61.0096 135.133 61.0334 135.1 61.0678L132.182 64.1035C132.114 64.1711 132.117 64.2674 132.188 64.3323L139.822 70.9396C139.864 70.9781 139.926 71 139.99 71C140.054 71 140.116 70.9781 140.158 70.9396L147.791 64.3323C147.863 64.2674 147.866 64.1711 147.798 64.1035L144.88 61.0678C144.837 61.0254 144.773 61.0007 144.705 61.0007H135.275C135.261 60.9998 135.247 60.9998 135.233 61.0007Z" fill="#A19072"/>
<path d="M135.233 61.0007C135.18 61.0096 135.133 61.0334 135.1 61.0678L132.182 64.1035C132.114 64.1711 132.117 64.2674 132.188 64.3323L139.822 70.9396C139.864 70.9781 139.926 71 139.99 71C140.054 71 140.116 70.9781 140.158 70.9396L147.791 64.3323C147.863 64.2674 147.866 64.1711 147.798 64.1035L144.88 61.0678C144.837 61.0254 144.773 61.0007 144.705 61.0007H135.275C135.261 60.9998 135.247 60.9998 135.233 61.0007Z" fill="url(#paint1_radial_658_344)" fill-opacity="0.39"/>
<path d="M109.522 61.0007C109.469 61.0096 109.422 61.0334 109.389 61.0678L106.471 64.1035C106.403 64.1711 106.406 64.2674 106.477 64.3323L114.111 70.9396C114.153 70.9781 114.215 71 114.279 71C114.343 71 114.405 70.9781 114.447 70.9396L122.081 64.3323C122.152 64.2674 122.155 64.1711 122.087 64.1035L119.169 61.0678C119.126 61.0254 119.062 61.0007 118.994 61.0007H109.564C109.55 60.9998 109.536 60.9998 109.522 61.0007Z" fill="#A19072"/>
<path d="M109.522 61.0007C109.469 61.0096 109.422 61.0334 109.389 61.0678L106.471 64.1035C106.403 64.1711 106.406 64.2674 106.477 64.3323L114.111 70.9396C114.153 70.9781 114.215 71 114.279 71C114.343 71 114.405 70.9781 114.447 70.9396L122.081 64.3323C122.152 64.2674 122.155 64.1711 122.087 64.1035L119.169 61.0678C119.126 61.0254 119.062 61.0007 118.994 61.0007H109.564C109.55 60.9998 109.536 60.9998 109.522 61.0007Z" fill="url(#paint2_radial_658_344)" fill-opacity="0.39"/>
<path d="M83.8115 61.0007C83.7583 61.0096 83.711 61.0334 83.6781 61.0678L80.7596 64.1035C80.6922 64.1711 80.6951 64.2674 80.7665 64.3323L88.3997 70.9396C88.4423 70.9781 88.5037 71 88.5681 71C88.6324 71 88.6938 70.9781 88.7364 70.9396L96.3696 64.3323C96.441 64.2674 96.444 64.1711 96.3765 64.1035L93.4581 61.0678C93.4153 61.0254 93.3508 61.0007 93.2827 61.0007H83.8534C83.8395 60.9998 83.8255 60.9998 83.8115 61.0007Z" fill="#A19072"/>
<path d="M83.8115 61.0007C83.7583 61.0096 83.711 61.0334 83.6781 61.0678L80.7596 64.1035C80.6922 64.1711 80.6951 64.2674 80.7665 64.3323L88.3997 70.9396C88.4423 70.9781 88.5037 71 88.5681 71C88.6324 71 88.6938 70.9781 88.7364 70.9396L96.3696 64.3323C96.441 64.2674 96.444 64.1711 96.3765 64.1035L93.4581 61.0678C93.4153 61.0254 93.3508 61.0007 93.2827 61.0007H83.8534C83.8395 60.9998 83.8255 60.9998 83.8115 61.0007Z" fill="url(#paint3_radial_658_344)" fill-opacity="0.39"/>
<path d="M58.1006 61.0007C58.0473 61.0096 58.0001 61.0334 57.9672 61.0678L55.0487 64.1035C54.9812 64.1711 54.9842 64.2674 55.0556 64.3323L62.6888 70.9396C62.7314 70.9781 62.7928 71 62.8571 71C62.9215 71 62.9829 70.9781 63.0255 70.9396L70.6587 64.3323C70.7301 64.2674 70.7331 64.1711 70.6656 64.1035L67.7471 61.0678C67.7044 61.0254 67.6398 61.0007 67.5717 61.0007H58.1425C58.1285 60.9998 58.1145 60.9998 58.1006 61.0007Z" fill="#A19072"/>
<path d="M58.1006 61.0007C58.0473 61.0096 58.0001 61.0334 57.9672 61.0678L55.0487 64.1035C54.9812 64.1711 54.9842 64.2674 55.0556 64.3323L62.6888 70.9396C62.7314 70.9781 62.7928 71 62.8571 71C62.9215 71 62.9829 70.9781 63.0255 70.9396L70.6587 64.3323C70.7301 64.2674 70.7331 64.1711 70.6656 64.1035L67.7471 61.0678C67.7044 61.0254 67.6398 61.0007 67.5717 61.0007H58.1425C58.1285 60.9998 58.1145 60.9998 58.1006 61.0007Z" fill="url(#paint4_radial_658_344)" fill-opacity="0.39"/>
<defs>
<radialGradient id="paint0_radial_658_344" cx="0" cy="0" r="1" gradientUnits="userSpaceOnUse" gradientTransform="translate(161.344 61.5) rotate(60.9454) scale(10.2956 16.1788)">
<stop stop-color="white"/>
<stop offset="1" stop-color="white" stop-opacity="0"/>
</radialGradient>
<radialGradient id="paint1_radial_658_344" cx="0" cy="0" r="1" gradientUnits="userSpaceOnUse" gradientTransform="translate(135.633 61.5) rotate(60.9454) scale(10.2956 16.1788)">
<stop stop-color="white"/>
<stop offset="1" stop-color="white" stop-opacity="0"/>
</radialGradient>
<radialGradient id="paint2_radial_658_344" cx="0" cy="0" r="1" gradientUnits="userSpaceOnUse" gradientTransform="translate(109.922 61.5) rotate(60.9454) scale(10.2956 16.1788)">
<stop stop-color="white"/>
<stop offset="1" stop-color="white" stop-opacity="0"/>
</radialGradient>
<radialGradient id="paint3_radial_658_344" cx="0" cy="0" r="1" gradientUnits="userSpaceOnUse" gradientTransform="translate(84.2109 61.5) rotate(60.9454) scale(10.2956 16.1788)">
<stop stop-color="white"/>
<stop offset="1" stop-color="white" stop-opacity="0"/>
</radialGradient>
<radialGradient id="paint4_radial_658_344" cx="0" cy="0" r="1" gradientUnits="userSpaceOnUse" gradientTransform="translate(58.5 61.5) rotate(60.9454) scale(10.2956 16.1788)">
<stop stop-color="white"/>
<stop offset="1" stop-color="white" stop-opacity="0"/>
</radialGradient>
</defs>
</svg>
